<svg width="96" height="33" viewBox="0 0 96 33" fill="none" xmlns="http://www.w3.org/2000/svg">
<path fill-rule="evenodd" clip-rule="evenodd" d="M1.3344 26.2184L9.04011 26.112L9.06206 26.066L0.758575 24.702L0.716205 24.5376L7.67865 24.4354C7.67865 24.4354 7.62097 24.2935 7.44332 23.9415L0.279743 22.7709L0.25524 22.6064L6.95735 22.5074L6.8527 22.0277L0.0566634 20.9864L0.0490061 20.7837L6.65106 20.6863L6.60001 20.1871L0 19.0741L0.0112306 18.9086L6.60205 18.8111C6.56785 18.6179 6.62298 18.2271 6.62298 18.2271L0.104649 17.2089L0.133746 17.0424L6.71997 16.9638C6.71895 16.8674 6.75724 16.5128 6.75724 16.5128L0.346617 15.3317L0.375714 15.1657L7.02422 15.0672C7.02422 15.0672 7.06761 14.6932 7.14367 14.4989L0.735603 13.4954L0.782567 13.3288L7.44485 13.2303C7.44485 13.2303 7.58319 12.8344 7.65977 12.6882L1.28131 11.7009L1.32827 11.5532L8.10286 11.4532C8.10286 11.4532 8.29889 11.0347 8.34432 10.9215L2.01487 9.91642L2.08021 9.76819L8.97528 9.66657C8.97528 9.66657 9.16007 9.29417 9.32955 9.03385L3.00673 8.02925L3.07156 7.89936L10.1627 7.81294C10.1627 7.81294 10.376 7.46829 10.5624 7.28864L4.17063 6.30604L4.28957 6.15729L11.5394 6.05043C11.5394 6.05043 11.8222 5.73407 12.0244 5.57013L5.73985 4.58596L5.84092 4.43721L13.2281 4.32198L13.711 3.88253L7.98647 2.61343L7.97269 2.615C10.4296 1.01749 13.4787 0.0521712 17.1527 0.00188886C23.9824 -0.0929143 29.7493 3.37604 29.9417 11.5213L21.0624 11.6438C20.7684 8.75625 19.0905 7.77208 16.6999 7.80508C11.5348 7.87631 9.30402 13.5582 9.37447 18.9463C9.42297 22.6248 10.9917 25.0566 14.7907 25.0032C17.3094 24.9686 19.4315 24.0201 20.3376 21.4667L16.0689 21.5248L17.3472 14.8048L29.8116 14.6325L26.5374 31.8935L20.6035 31.9752L20.82 28.9504L20.7337 28.8634C18.8061 31.6059 15.7897 32.7865 12.5456 32.8315C6.20439 32.9195 2.9225 29.7009 1.34359 26.2446L1.3344 26.2184ZM47.0745 14.8718C46.1648 14.3208 45.0377 13.9411 43.5864 13.9584C41.7793 13.9793 39.8165 14.733 39.843 17.0644C39.8798 20.351 46.3961 20.3023 46.4538 25.4427C46.4869 28.392 44.5257 31.7589 39.9262 31.8128C37.7087 31.8395 36.115 31.3524 34.5749 30.7522L35.4223 28.1579C36.5525 28.875 38.1191 29.3621 39.4607 29.3469C42.3628 29.3123 43.5741 27.444 43.5553 25.8145C43.5108 21.826 37.0027 22.6054 36.9415 17.156C36.9011 13.5881 40.0544 11.5281 43.203 11.4909C44.7906 11.472 46.3547 11.7627 47.8127 12.3635L47.0745 14.8718ZM58.0177 31.0088C56.6797 31.3618 55.2866 31.6311 53.891 31.6473C50.4963 31.6871 47.441 30.3195 47.3839 25.263C47.3395 21.3022 49.9985 16.6914 54.9267 16.6328C58.2939 16.593 60.2061 18.6493 60.2449 22.0486C60.2551 23.0029 60.1551 23.8195 60.0275 24.6633L50.1987 24.7801C50.1476 25.0773 50.1235 25.3787 50.1267 25.6805C50.1604 28.6859 51.9772 29.5349 54.4688 29.5056C55.7552 29.4904 57.1478 29.1374 58.4011 28.5879L58.0177 31.0088ZM57.596 22.7258C57.6471 22.3042 57.6701 21.9669 57.666 21.6291C57.6481 19.9441 56.621 18.7483 54.6771 18.7708C52.5693 18.7954 50.9751 20.6973 50.4519 22.8107L57.596 22.7258ZM61.9081 19.0778C62.0117 18.4864 62.1674 17.7264 62.2669 16.8826L64.6769 16.8538L64.2639 19.1343H64.3186C65.1241 17.7757 66.6157 16.494 69.0522 16.4652C69.2983 16.462 69.7373 16.5134 70.2325 16.7045L69.6832 19.0421C69.1885 18.852 68.7771 18.7719 68.5857 18.775C65.41 18.8117 63.8887 22.3697 63.5528 24.1437L62.1807 31.2115L59.6073 31.2424L61.9081 19.0778ZM71.0273 16.7779L73.6006 16.748L70.8047 31.1089L68.2314 31.1398L71.0273 16.7779ZM74.4138 13.5357L71.5112 13.5697L72.0794 10.5848L74.982 10.5507L74.4138 13.5357ZM83.8302 30.7019C82.4922 31.0549 81.0991 31.3241 79.7034 31.3404C76.3087 31.3812 73.2535 30.0126 73.1968 24.9561C73.1519 20.9953 75.811 16.3845 80.7392 16.3258C84.1063 16.2866 86.0186 18.3434 86.0574 21.7417C86.0676 22.697 85.9675 23.5126 85.8399 24.3574L76.0111 24.4732C75.9601 24.7704 75.936 25.0718 75.9391 25.3735C75.9728 28.3789 77.7896 29.228 80.2813 29.1986C81.5677 29.1845 82.9603 28.8304 84.2135 28.282L83.8302 30.7019ZM83.4085 22.4189C83.4595 21.9973 83.4825 21.66 83.4784 21.3221C83.4595 19.6371 82.4335 18.4414 80.4896 18.4639C78.3818 18.4896 76.7876 20.3903 76.2643 22.5038L83.4085 22.4189Z" fill="#CCCCCC"/>
<path fill-rule="evenodd" clip-rule="evenodd" d="M94.7605 19.0254C94.0448 18.6682 92.9182 18.3163 91.9601 18.3278C90.8375 18.3409 89.3627 18.6672 89.3786 20.1008C89.4066 22.5436 94.1714 22.5997 94.2164 26.5887C94.2552 30.0446 91.1734 31.2042 88.984 31.2299C86.7665 31.2566 85.941 30.957 84.8971 30.604L85.3637 28.3235C86.3816 28.7325 87.4546 29.1133 88.5761 29.0997C89.9728 29.0835 91.4996 28.4749 91.4802 26.8459C91.4531 24.402 86.6853 24.093 86.6445 20.4695C86.6108 17.4353 89.5537 16.2206 91.8539 16.1934C93.0851 16.1787 94.3486 16.4726 95.5038 16.9366L94.7605 19.0254Z" fill="#CCCCCC"/>
</svg>
