<svg width="67" height="33" viewBox="0 0 67 33" fill="none" xmlns="http://www.w3.org/2000/svg">
<path fill-rule="evenodd" clip-rule="evenodd" d="M1.44813 4.54592H5.65404C5.27729 4.28238 4.56803 3.94678 3.40054 3.94678C2.55548 3.94678 1.92265 4.18882 1.44813 4.54592ZM6.36019 4.54592H10.7593C10.241 4.18882 9.5154 3.94678 8.50195 3.94678C7.43184 3.94678 6.73927 4.28238 6.36019 4.54592ZM0.854492 5.14507H11.3879C11.211 4.91206 10.9988 4.70976 10.7593 4.54592H6.36019C6.11537 4.71591 6.00129 4.85564 6.00129 4.85564C6.00129 4.85564 5.89653 4.71591 5.65404 4.54592H1.44813C1.22378 4.716 1.02393 4.9177 0.854492 5.14507Z" fill="#CCCCCC"/>
<path fill-rule="evenodd" clip-rule="evenodd" d="M0.502441 5.72395H11.73C11.6381 5.51828 11.5234 5.32418 11.3881 5.14551H0.854356C0.714677 5.33182 0.598665 5.52809 0.502441 5.72395Z" fill="#CCCCCC"/>
<path fill-rule="evenodd" clip-rule="evenodd" d="M0.262224 6.32229H11.9344C11.8842 6.11654 11.8156 5.91597 11.7295 5.72314H0.502396C0.402292 5.92697 0.323916 6.1304 0.262224 6.32229ZM0.109741 6.92183H2.79624C2.96929 6.71561 3.25447 6.5293 3.72045 6.5293C4.18683 6.5293 4.45222 6.71601 4.60276 6.92183H7.58026C7.75602 6.71561 8.04625 6.5293 8.52116 6.5293C8.96968 6.5293 9.23701 6.71601 9.39609 6.92183H12.0329C12.015 6.7198 11.9819 6.51949 11.934 6.32269H0.262224C0.199459 6.519 0.148535 6.71909 0.109741 6.92183Z" fill="#CCCCCC"/>
<path fill-rule="evenodd" clip-rule="evenodd" d="M0.0395552 7.50081H2.54021V7.4594C2.54021 7.4594 2.58289 7.17635 2.79629 6.92236H0.109783C0.0484791 7.24523 0.0395552 7.4594 0.0395552 7.4594V7.50081ZM4.80108 7.50081H7.32191V7.4594C7.32191 7.4594 7.36498 7.17635 7.58109 6.92236H4.60359C4.71613 7.07946 4.78457 7.2652 4.80147 7.4594V7.50081H4.80108ZM9.62197 7.50081H12.0427V7.4594C12.0427 7.4594 12.0621 7.24483 12.0334 6.92236H9.39654C9.59132 7.17635 9.62197 7.4594 9.62197 7.4594V7.50081ZM0.0383911 8.09995H2.54021V7.50081H0.0395552L0.0383911 8.09995ZM4.80108 8.09995H7.32191V7.50081H4.80108V8.09995ZM9.62197 8.09995H12.0427V7.50081H9.62197V8.09995Z" fill="#CCCCCC"/>
<path fill-rule="evenodd" clip-rule="evenodd" d="M0.0372574 8.69973H2.54062V8.10059H0.0388097L0.0372574 8.69973ZM4.8011 8.69973H7.32193V8.10059H4.8011V8.69973ZM9.62199 8.69973H12.0427V8.10059H9.62199V8.69973ZM0.0357056 9.27818H2.54024V8.69973H0.0368697L0.0357056 9.27818ZM4.8011 9.27818H7.32193V8.69973H4.8011V9.27818ZM9.62199 9.27818H12.0427V8.69973H9.62199V9.27818Z" fill="#CCCCCC"/>
<path fill-rule="evenodd" clip-rule="evenodd" d="M0.0349776 9.87698H2.54067V9.27783H0.0357535L0.0349776 9.87698ZM4.80115 9.87698H7.32198V9.27783H4.80115V9.87698ZM9.62203 9.87698H12.0428V9.27783H9.62203V9.87698ZM0.0338135 10.4554H2.54067V9.87698H0.0349776L0.0338135 10.4554ZM4.80115 10.4554H7.32198V9.87698H4.80115V10.4554ZM9.62203 10.4554H12.0428V9.87698H9.62203V10.4554Z" fill="#CCCCCC"/>
<path fill-rule="evenodd" clip-rule="evenodd" d="M0.03217 11.0551H2.54019V10.4556H0.0333341L0.03217 11.0551ZM4.80106 11.0551H7.32189V10.4556H4.80106V11.0551ZM9.62194 11.0551H12.0427V10.4556H9.62194V11.0551ZM0.0310059 11.6543H2.54058V11.0551H0.0325577L0.0310059 11.6543ZM4.80106 11.6543H7.32189V11.0551H4.80106V11.6543ZM9.62194 11.6543H12.0427V11.0551H9.62194V11.6543Z" fill="#CCCCCC"/>
<path fill-rule="evenodd" clip-rule="evenodd" d="M0.0297852 12.2322H2.54053V11.6538H0.0309493L0.0297852 12.2322ZM4.80101 12.2322H7.32184V11.6538H4.80101V12.2322ZM9.62189 12.2322H12.0426V11.6538H9.62189V12.2322Z" fill="#CCCCCC"/>
<path fill-rule="evenodd" clip-rule="evenodd" d="M0.0286865 12.832H2.54059V12.2324H0.0298503L0.0286865 12.832ZM4.80107 12.832H7.3219V12.2324H4.80107V12.832ZM9.62195 12.832H12.0427V12.2324H9.62195V12.832Z" fill="#CCCCCC"/>
<path fill-rule="evenodd" clip-rule="evenodd" d="M0.0270996 13.4307H2.54055V12.8315H0.0286519L0.0270996 13.4307ZM4.80103 13.4307H7.32186V12.8315H4.80103V13.4307ZM9.62191 13.4307H12.0426V12.8315H9.62191V13.4307Z" fill="#CCCCCC"/>
<path fill-rule="evenodd" clip-rule="evenodd" d="M0.0264192 14.0091H2.54065V13.4307H0.0271951L0.0264192 14.0091ZM4.80113 14.0091H7.32196V13.4307H4.80113V14.0091ZM9.62202 14.0091H12.0427V13.4307H9.62202V14.0091ZM0.0248673 14.6083H2.54026V14.0091H0.0260314L0.0248673 14.6083ZM4.80113 14.6083H7.32196V14.0091H4.80113V14.6083ZM9.62202 14.6083H12.0427V14.0091H9.62202V14.6083ZM0.0233154 15.2078H2.54026V14.6086H0.0248673L0.0233154 15.2078ZM4.80113 15.2078H7.32196V14.6086H4.80113V15.2078ZM9.62202 15.2078H12.0427V14.6086H9.62202V15.2078Z" fill="#CCCCCC"/>
<path fill-rule="evenodd" clip-rule="evenodd" d="M0.0221602 15.7864H2.54027V15.208H0.0233243L0.0221602 15.7864ZM4.80114 15.7864H7.32196V15.208H4.80114V15.7864ZM9.62202 15.7864H12.0427V15.208H9.62202V15.7864ZM0.0209961 16.3856H2.54027V15.7864H0.0221602L0.0209961 16.3856ZM4.80114 16.3856H7.32196V15.7864H4.80114V16.3856ZM9.62202 16.3856H12.0427V15.7864H9.62202V16.3856Z" fill="#CCCCCC"/>
<path fill-rule="evenodd" clip-rule="evenodd" d="M0.0197754 16.9849H2.5406V16.3857H0.0213276L0.0197754 16.9849ZM4.80108 16.9849H7.32191V16.3857H4.80108V16.9849ZM9.62197 16.9849H12.0427V16.3857H9.62197V16.9849Z" fill="#CCCCCC"/>
<path fill-rule="evenodd" clip-rule="evenodd" d="M0.0185591 17.5628H2.54055V16.9844H0.0197228L0.0185591 17.5628ZM4.80104 17.5628H7.32186V16.9844H4.80104V17.5628ZM9.62192 17.5628H12.0426V16.9844H9.62192V17.5628ZM0.017395 18.1624H2.54055V17.5628H0.0185591L0.017395 18.1624ZM4.80104 18.1624H7.32186V17.5628H4.80104V18.1624ZM9.62192 18.1624H12.0426V17.5628H9.62192V18.1624Z" fill="#CCCCCC"/>
<path fill-rule="evenodd" clip-rule="evenodd" d="M0.015939 18.741H2.54026V18.1626H0.0171028L0.015939 18.741ZM4.80113 18.741H7.32196V18.1626H4.80113V18.741ZM9.62201 18.741H12.0427V18.1626H9.62201V18.741ZM0.0147749 19.3406H2.54065V18.741H0.0163268L0.0147749 19.3406ZM4.80113 19.3406H7.32196V18.741H4.80113V19.3406ZM9.62201 19.3406H12.0427V18.741H9.62201V19.3406ZM0.0136108 19.9393H2.54065V19.3406H0.0147749L0.0136108 19.9393ZM4.80113 19.9393H7.32196V19.3406H4.80113V19.9393ZM9.62201 19.9393H12.0427V19.3406H9.62201V19.9393Z" fill="#CCCCCC"/>
<path fill-rule="evenodd" clip-rule="evenodd" d="M0.0119673 20.5187H2.54056V19.9395H0.0135192L0.0119673 20.5187ZM4.80104 20.5187H7.32187V19.9395H4.80104V20.5187ZM9.62192 20.5187H12.0426V19.9395H9.62192V20.5187ZM0.0108032 21.1174H2.54017V20.5187H0.0115792L0.0108032 21.1174ZM4.80104 21.1174H7.32187V20.5187H4.80104V21.1174ZM9.62192 21.1174H12.0426V20.5187H9.62192V21.1174Z" fill="#CCCCCC"/>
<path fill-rule="evenodd" clip-rule="evenodd" d="M0.00973059 21.7167H2.54026V21.1172H0.0108947L0.00973059 21.7167ZM4.80112 21.7167H7.32195V21.1172H4.80112V21.7167ZM9.622 21.7167H12.0427V21.1172H9.622V21.7167ZM0.00817871 22.2956H2.54026V21.7171H0.00973059L0.00817871 22.2956ZM4.80112 22.2956H7.32195V21.7171H4.80112V22.2956ZM9.622 22.2956H12.0427V21.7171H9.622V22.2956Z" fill="#CCCCCC"/>
<path fill-rule="evenodd" clip-rule="evenodd" d="M0.00738525 22.895H2.54063V22.2954H0.00854935L0.00738525 22.895ZM4.80111 22.895H7.32193V22.2954H4.80111V22.895ZM9.62199 22.895H12.0427V22.2954H9.62199V22.895Z" fill="#CCCCCC"/>
<path fill-rule="evenodd" clip-rule="evenodd" d="M0.00574173 23.4933H2.54015V22.8945H0.00690546L0.00574173 23.4933ZM4.80102 23.4933H7.32184V22.8945H4.80102V23.4933ZM9.6219 23.4933H12.0426V22.8945H9.6219V23.4933ZM0.00457764 24.0717H2.54015V23.4933H0.00574173L0.00457764 24.0717ZM4.80102 24.0717H7.32184V23.4933H4.80102V24.0717ZM9.6219 24.0717H12.0426V23.4933H9.6219V24.0717Z" fill="#CCCCCC"/>
<path fill-rule="evenodd" clip-rule="evenodd" d="M0.00342646 24.6713H2.54016V24.0718H0.00459055L0.00342646 24.6713ZM4.80103 24.6713H7.32186V24.0718H4.80103V24.6713ZM9.62191 24.6713H12.0426V24.0718H9.62191V24.6713ZM0.00265051 25.2709H2.54055V24.6713H0.00381461L0.00265051 25.2709ZM4.80103 25.2709H7.32186V24.6713H4.80103V25.2709ZM9.62191 25.2709H12.0426V24.6713H9.62191V25.2709ZM0.00109863 25.8493H2.54055V25.2709H0.00265051L0.00109863 25.8493ZM4.80103 25.8493H7.32186V25.2709H4.80103V25.8493ZM9.62191 25.8493H12.0426V25.2709H9.62191V25.8493Z" fill="#CCCCCC"/>
<path fill-rule="evenodd" clip-rule="evenodd" d="M0 26.4479H2.54061V25.8491H0.0011641L0 26.4479ZM4.80109 26.4479H7.32192V25.8491H4.80109V26.4479ZM9.62197 26.4479H12.0427V25.8491H9.62197V26.4479Z" fill="#CCCCCC"/>
<path fill-rule="evenodd" clip-rule="evenodd" d="M30.6678 3.69876H30.998L30.6678 3.09961V3.69876ZM30.6678 4.3186H31.3402L30.998 3.69876H30.6678V4.3186Z" fill="#CCCCCC"/>
<path fill-rule="evenodd" clip-rule="evenodd" d="M30.6678 4.9387H31.682L31.3402 4.31885H30.6678V4.9387ZM35.569 4.9387H37.9296V4.33955H35.569V4.9387Z" fill="#CCCCCC"/>
<path fill-rule="evenodd" clip-rule="evenodd" d="M30.6678 5.55872H32.0242L31.682 4.93848H30.6678V5.55872ZM35.569 5.55872H37.9296V4.93848H35.569V5.55872Z" fill="#CCCCCC"/>
<path fill-rule="evenodd" clip-rule="evenodd" d="M30.6678 6.15775H32.3544L32.0242 5.55859H30.6678V6.15775ZM35.569 6.15775H37.9296V5.55859H35.569V6.15775Z" fill="#CCCCCC"/>
<path fill-rule="evenodd" clip-rule="evenodd" d="M30.6678 6.77756H32.6966L32.3544 6.15771H30.6678V6.77756ZM35.569 6.77756H37.9296V6.15771H35.569V6.77756ZM30.6678 7.3974H33.0385L32.6966 6.77756H30.6678V7.3974ZM35.569 7.3974H37.9296V6.77756H35.569V7.3974Z" fill="#CCCCCC"/>
<path fill-rule="evenodd" clip-rule="evenodd" d="M30.6678 8.0169H33.3807L33.0385 7.39746H30.6678V8.0169ZM35.569 8.0169H37.9296V7.39746H35.569V8.0169ZM30.6678 8.61644H33.7109L33.3803 8.0169H30.6674V8.61644H30.6678ZM35.569 8.61644H37.9296V8.0169H35.569V8.61644Z" fill="#CCCCCC"/>
<path fill-rule="evenodd" clip-rule="evenodd" d="M30.6678 9.23655H34.0527L33.7109 8.6167H30.6678V9.23655ZM35.569 9.23655H37.9296V8.6167H35.569V9.23655ZM30.6678 9.85639H34.3953L34.0527 9.23655H30.6678V9.85639ZM35.569 9.85639H37.9296V9.23655H35.569V9.85639Z" fill="#CCCCCC"/>
<path fill-rule="evenodd" clip-rule="evenodd" d="M30.6678 10.4762H34.7371L34.3953 9.85596H30.6678V10.4762ZM35.569 10.4762H37.9296V9.85596H35.569V10.4762Z" fill="#CCCCCC"/>
<path fill-rule="evenodd" clip-rule="evenodd" d="M30.6678 11.0752H35.0673L34.7367 10.4761H30.6678V11.0752ZM35.569 11.0752H37.9296V10.4761H35.569V11.0752ZM30.6678 11.6951H35.4091L35.0673 11.0752H30.6678V11.6951ZM35.569 11.6951H37.9296V11.0752H35.569V11.6951Z" fill="#CCCCCC"/>
<path fill-rule="evenodd" clip-rule="evenodd" d="M30.6678 12.3147H37.9296V11.6948H35.569V11.9846L35.4091 11.6948H30.6678V12.3147ZM30.6678 12.9345H32.988V12.3768L33.338 12.9345H37.9296V12.3147H30.6678V12.9345Z" fill="#CCCCCC"/>
<path fill-rule="evenodd" clip-rule="evenodd" d="M30.6678 13.5342H32.988V12.9351H30.6678V13.5342ZM33.7132 13.5342H37.9296V12.9351H33.338L33.7132 13.5342Z" fill="#CCCCCC"/>
<path fill-rule="evenodd" clip-rule="evenodd" d="M30.6678 14.154H32.988V13.5342H30.6678V14.154ZM34.102 14.154H37.9296V13.5342H33.7132L34.102 14.154Z" fill="#CCCCCC"/>
<path fill-rule="evenodd" clip-rule="evenodd" d="M30.6678 14.7736H32.988V14.1538H30.6678V14.7736ZM34.4907 14.7736H37.9296V14.1538H34.102L34.4907 14.7736Z" fill="#CCCCCC"/>
<path fill-rule="evenodd" clip-rule="evenodd" d="M30.6678 15.373H32.988V14.7734H30.6678V15.373ZM34.8659 15.373H37.9296V14.7734H34.4907L34.8659 15.373Z" fill="#CCCCCC"/>
<path fill-rule="evenodd" clip-rule="evenodd" d="M30.6678 15.9929H32.988V15.373H30.6678V15.9929ZM35.2543 15.9929H37.9296V15.373H34.8659L35.2543 15.9929Z" fill="#CCCCCC"/>
<path fill-rule="evenodd" clip-rule="evenodd" d="M30.6678 16.613H32.988V15.9932H30.6678V16.613ZM35.6431 16.613H37.9296V15.9932H35.2543L35.6431 16.613ZM30.6678 17.2329H32.988V16.613H30.6678V17.2329ZM35.6691 17.2329H37.9296V16.613H35.6431L35.6687 16.6544V17.2329H35.6691ZM30.6678 17.8324H32.988V17.2329H30.6678V17.8324ZM35.6691 17.8324H37.9296V17.2329H35.6691V17.8324Z" fill="#CCCCCC"/>
<path fill-rule="evenodd" clip-rule="evenodd" d="M30.6678 18.4514H32.988V17.8315H30.6678V18.4514ZM35.6691 18.4514H37.9296V17.8315H35.6691V18.4514ZM30.6678 19.0712H32.988V18.4514H30.6678V19.0712ZM35.6691 19.0712H37.9296V18.4514H35.6691V19.0712Z" fill="#CCCCCC"/>
<path fill-rule="evenodd" clip-rule="evenodd" d="M30.6678 19.6919H32.988V19.0713H30.6678V19.6919ZM35.6691 19.6919H37.9296V19.0713H35.6691V19.6919Z" fill="#CCCCCC"/>
<path fill-rule="evenodd" clip-rule="evenodd" d="M30.6678 20.2906H32.988V19.6919H30.6678V20.2906ZM35.6691 20.2906H37.9296V19.6919H35.6691V20.2906ZM30.6678 20.9113H32.988V20.2906H30.6678V20.9113ZM35.6691 20.9113H37.9296V20.2906H35.6691V20.9113Z" fill="#CCCCCC"/>
<path fill-rule="evenodd" clip-rule="evenodd" d="M30.6678 21.531H32.988V20.9111H30.6678V21.531ZM35.6691 21.531H37.9296V20.9111H35.6691V21.531Z" fill="#CCCCCC"/>
<path fill-rule="evenodd" clip-rule="evenodd" d="M30.6678 22.1501H32.988V21.5303H30.6678V22.1501ZM35.6691 22.1501H37.9296V21.5303H35.6691V22.1501ZM30.6678 22.7497H32.988V22.1501H30.6678V22.7497ZM35.6691 22.7497H37.9296V22.1501H35.6691V22.7497Z" fill="#CCCCCC"/>
<path fill-rule="evenodd" clip-rule="evenodd" d="M30.6678 23.3699H32.988V22.75H30.6678V23.3699ZM35.6691 23.3699H37.9296V22.75H35.6691V23.3699Z" fill="#CCCCCC"/>
<path fill-rule="evenodd" clip-rule="evenodd" d="M30.6678 23.989H32.988V23.3691H30.6678V23.989ZM35.6691 23.989H37.9296V23.3691H35.6691V23.989Z" fill="#CCCCCC"/>
<path fill-rule="evenodd" clip-rule="evenodd" d="M30.6678 24.6091H32.988V23.9893H30.6678V24.6091ZM35.6691 24.6091H37.9296V23.9893H35.6691V24.6091Z" fill="#CCCCCC"/>
<path fill-rule="evenodd" clip-rule="evenodd" d="M30.6678 25.2089H32.988V24.6094H30.6678V25.2089ZM35.6691 25.2089H37.9296V24.6094H35.6691V25.2089ZM30.6678 25.8288H32.988V25.2089H30.6678V25.8288ZM35.6691 25.8288H37.9296V25.2089H35.6691V25.8288Z" fill="#CCCCCC"/>
<path fill-rule="evenodd" clip-rule="evenodd" d="M30.6678 26.448H32.988V25.8281H30.6678V26.448ZM35.6691 26.448H37.9296V25.8281H35.6691V26.448Z" fill="#CCCCCC"/>
<path fill-rule="evenodd" clip-rule="evenodd" d="M51.9006 0.868256H53.7533V0C53.7533 0 53.0076 0.26195 51.9006 0.868256Z" fill="#CCCCCC"/>
<path fill-rule="evenodd" clip-rule="evenodd" d="M50.4682 1.73563H53.7534V0.868164H51.9007C51.4113 1.13603 50.9333 1.42546 50.4682 1.73563Z" fill="#CCCCCC"/>
<path fill-rule="evenodd" clip-rule="evenodd" d="M49.2944 2.583H53.7532V1.73584H50.4681C50.0669 2.00349 49.6754 2.28606 49.2944 2.583ZM48.2592 3.45086H53.7532V2.583H49.2944C48.9396 2.85986 48.5943 3.14933 48.2592 3.45086ZM47.359 4.31872H52.8624C53.4087 4.05557 53.7536 3.94689 53.7536 3.94689V3.45086H48.2596C47.9497 3.72942 47.6494 4.01888 47.359 4.31872Z" fill="#CCCCCC"/>
<path fill-rule="evenodd" clip-rule="evenodd" d="M46.5715 5.18613H51.3602C51.8399 4.86013 52.3418 4.56997 52.8621 4.31787H47.3588C47.0872 4.5984 46.8246 4.88797 46.5715 5.18613ZM45.8828 6.05399H50.2249C50.587 5.74302 50.9661 5.45341 51.3602 5.18653H46.5715C46.3328 5.46792 46.1031 5.75723 45.8828 6.05399Z" fill="#CCCCCC"/>
<path fill-rule="evenodd" clip-rule="evenodd" d="M45.278 6.92206H49.3116C49.6014 6.61689 49.9062 6.32722 50.225 6.0542H45.8829C45.6723 6.33677 45.4705 6.62621 45.278 6.92206ZM44.7612 7.76923H48.5783C48.8101 7.47541 49.0549 7.19273 49.312 6.92206H45.2784C45.0999 7.19476 44.928 7.47702 44.7612 7.76923Z" fill="#CCCCCC"/>
<path fill-rule="evenodd" clip-rule="evenodd" d="M44.2997 8.63691H47.9516C48.1481 8.33843 48.3571 8.04887 48.5782 7.76904H44.7611C44.5991 8.05367 44.4452 8.34308 44.2997 8.63691ZM43.9012 9.50517H47.432C47.5989 9.20102 47.7723 8.91199 47.952 8.6373H44.3001C44.1604 8.91836 44.027 9.20738 43.9012 9.50517Z" fill="#CCCCCC"/>
<path fill-rule="evenodd" clip-rule="evenodd" d="M43.5602 10.3727H47.0014C47.1341 10.078 47.2777 9.78851 47.4317 9.50488H43.9009C43.7796 9.79092 43.666 10.0803 43.5602 10.3727Z" fill="#CCCCCC"/>
<path fill-rule="evenodd" clip-rule="evenodd" d="M43.2734 11.2399H46.6494C46.7584 10.9398 46.8759 10.6499 47.0009 10.3721H43.5597C43.4585 10.6547 43.363 10.9441 43.2734 11.2399ZM43.0417 12.0871H46.37C46.4565 11.7953 46.5496 11.513 46.6497 11.2399H43.2738C43.1892 11.5202 43.1118 11.8026 43.0417 12.0871Z" fill="#CCCCCC"/>
<path fill-rule="evenodd" clip-rule="evenodd" d="M42.8486 12.9553H46.1466C46.2141 12.6571 46.2882 12.3677 46.3701 12.0874H43.0418C42.9703 12.375 42.9058 12.6644 42.8486 12.9553ZM42.7007 13.8231H45.9766C46.0259 13.5253 46.0825 13.2363 46.1466 12.9553H42.8486C42.7931 13.2391 42.7438 13.5285 42.7007 13.8231Z" fill="#CCCCCC"/>
<path fill-rule="evenodd" clip-rule="evenodd" d="M42.5945 14.6906H45.8576C45.8902 14.3936 45.9305 14.1042 45.9767 13.8228H42.7008C42.6588 14.1112 42.6234 14.4005 42.5945 14.6906ZM42.5243 15.5585H45.785C45.8025 15.2623 45.8265 14.9729 45.858 14.6906H42.5949C42.5652 14.9793 42.5416 15.2687 42.5243 15.5585ZM42.4955 16.4056H45.7547C45.7586 16.1174 45.7683 15.8348 45.785 15.5589H42.5243C42.5091 15.8409 42.4995 16.1232 42.4955 16.4056Z" fill="#CCCCCC"/>
<path fill-rule="evenodd" clip-rule="evenodd" d="M42.4974 17.2736H45.7636C45.7556 17.0671 45.7516 16.8605 45.7516 16.6538C45.7516 16.5706 45.7531 16.4886 45.7547 16.4058H42.4955C42.4939 16.5224 42.4908 16.639 42.4908 16.7573C42.4908 16.9317 42.494 17.1036 42.4974 17.2736ZM50.4925 17.2736H53.7533V16.7573H50.4925V17.2736Z" fill="#CCCCCC"/>
<path fill-rule="evenodd" clip-rule="evenodd" d="M42.5409 18.1421H45.823C45.7954 17.8532 45.7757 17.5635 45.764 17.2734H42.4979C42.506 17.568 42.5204 17.8575 42.5409 18.1421ZM50.4926 18.1421H53.7533V17.2734H50.4926V18.1421Z" fill="#CCCCCC"/>
<path fill-rule="evenodd" clip-rule="evenodd" d="M42.6197 19.0104H45.9328C45.8875 18.7224 45.8509 18.433 45.823 18.1426H42.541C42.5611 18.4364 42.5871 18.7266 42.6197 19.0104ZM50.4926 19.0104H53.7533V18.1426H50.4926V19.0104Z" fill="#CCCCCC"/>
<path fill-rule="evenodd" clip-rule="evenodd" d="M42.7447 19.8776H46.0966C46.0332 19.5902 45.9786 19.3007 45.9329 19.0098H42.6198C42.6547 19.3048 42.697 19.5938 42.7447 19.8776ZM50.4926 19.8776H53.7534V19.0098H50.4926V19.8776Z" fill="#CCCCCC"/>
<path fill-rule="evenodd" clip-rule="evenodd" d="M42.9138 20.7453H46.3193C46.2357 20.4586 46.1614 20.1692 46.0965 19.8774H42.7446C42.7947 20.1728 42.8509 20.4623 42.9138 20.7453ZM50.4926 20.7453H53.7533V19.8774H50.4926V20.7453Z" fill="#CCCCCC"/>
<path fill-rule="evenodd" clip-rule="evenodd" d="M43.1238 21.5924H46.5968C46.4948 21.3135 46.4023 21.0311 46.3193 20.7456H42.9139C42.9775 21.0342 43.047 21.3165 43.1238 21.5924ZM50.4926 21.5924H53.7534V20.7456H50.4926V21.5924ZM43.3896 22.461H46.9491C46.8217 22.1758 46.7042 21.8861 46.5968 21.5924H43.1238C43.2057 21.8886 43.2941 22.1788 43.3896 22.461ZM50.4926 22.461H53.7534V21.5924H50.4926V22.461Z" fill="#CCCCCC"/>
<path fill-rule="evenodd" clip-rule="evenodd" d="M43.7115 23.3283H47.3769C47.2236 23.0446 47.0807 22.7551 46.9485 22.4604H43.389C43.4903 22.757 43.5978 23.0461 43.7115 23.3283ZM50.4925 23.3283H53.7533V22.4604H50.4925V23.3283Z" fill="#CCCCCC"/>
<path fill-rule="evenodd" clip-rule="evenodd" d="M44.0945 24.1965H47.891C47.7089 23.9142 47.5375 23.6246 47.3773 23.3286H43.7119C43.8322 23.6256 43.9602 23.915 44.0945 24.1965ZM50.4926 24.1965H53.7533V23.3286H50.4926V24.1965Z" fill="#CCCCCC"/>
<path fill-rule="evenodd" clip-rule="evenodd" d="M44.5423 25.0642H48.5049C48.2884 24.7839 48.0836 24.4944 47.8911 24.1963H44.0945C44.2369 24.4949 44.3871 24.7835 44.5423 25.0642ZM50.4926 25.0642H53.7534V24.1963H50.4926V25.0642Z" fill="#CCCCCC"/>
<path fill-rule="evenodd" clip-rule="evenodd" d="M45.0485 25.9107H49.2211C48.9699 25.6397 48.7309 25.3572 48.5048 25.064H44.5422C44.7018 25.3519 44.8707 25.6343 45.0485 25.9107ZM50.4925 25.9107H53.7533V25.064H50.4925V25.9107Z" fill="#CCCCCC"/>
<path fill-rule="evenodd" clip-rule="evenodd" d="M45.6466 26.7788H50.1252C49.8073 26.508 49.5054 26.2179 49.2212 25.9102H45.0486C45.2385 26.2064 45.438 26.4961 45.6466 26.7788ZM50.4926 26.7788H53.7534V25.9102H50.4926V26.7788Z" fill="#CCCCCC"/>
<path fill-rule="evenodd" clip-rule="evenodd" d="M46.3337 27.6472H53.7534V26.7793H50.4927V27.0687C50.4927 27.0687 50.3549 26.9732 50.1252 26.7793H45.6465C45.866 27.0765 46.0952 27.3659 46.3337 27.6472Z" fill="#CCCCCC"/>
<path fill-rule="evenodd" clip-rule="evenodd" d="M47.1239 28.5148H53.7533V27.647H46.3336C46.592 27.9519 46.8566 28.2401 47.1239 28.5148Z" fill="#CCCCCC"/>
<path fill-rule="evenodd" clip-rule="evenodd" d="M48.0358 29.3825H53.7534V28.5146H47.124C47.4179 28.8149 47.722 29.1044 48.0358 29.3825Z" fill="#CCCCCC"/>
<path fill-rule="evenodd" clip-rule="evenodd" d="M49.0923 30.2502H53.7537V29.3823H48.0361C48.3774 29.6852 48.7297 29.9747 49.0923 30.2502ZM50.3001 31.0977H53.7533V30.2502H49.0919C49.4839 30.5484 49.887 30.8311 50.3001 31.0977ZM51.79 31.9656H53.7537V31.0977H50.3005C50.8359 31.4421 51.3403 31.7307 51.79 31.9656Z" fill="#CCCCCC"/>
<path fill-rule="evenodd" clip-rule="evenodd" d="M53.7533 32.8337V31.9658H51.7897C52.9583 32.5765 53.7533 32.8337 53.7533 32.8337Z" fill="#CCCCCC"/>
<path fill-rule="evenodd" clip-rule="evenodd" d="M59.2952 17.6046H61.6755V17.439H59.2952V17.6046ZM64.4567 17.6046H66.9372V17.439H64.4567V17.6046ZM59.2952 18.2033H61.6755V17.6046H59.2952V18.2033ZM64.4567 18.2033H66.9372V17.6046H64.4567V18.2033Z" fill="#CCCCCC"/>
<path fill-rule="evenodd" clip-rule="evenodd" d="M59.2952 18.8032H61.6755V18.2036H59.2952V18.8032ZM64.4567 18.8032H66.9372V18.2036H64.4567V18.8032Z" fill="#CCCCCC"/>
<path fill-rule="evenodd" clip-rule="evenodd" d="M59.2952 19.402H61.6755V18.8032H59.2952V19.402ZM64.4567 19.402H66.9372V18.8032H64.4567V19.402ZM59.2952 20.0015H61.6755V19.402H59.2952V20.0015ZM64.4567 20.0015H66.9372V19.402H64.4567V20.0015Z" fill="#CCCCCC"/>
<path fill-rule="evenodd" clip-rule="evenodd" d="M59.2952 20.601H61.6755V20.0015H59.2952V20.601ZM64.4567 20.601H66.9372V20.0015H64.4567V20.601ZM59.2952 21.2005H61.6755V20.601H59.2952V21.2005ZM64.4567 21.2005H66.9372V20.601H64.4567V21.2005Z" fill="#CCCCCC"/>
<path fill-rule="evenodd" clip-rule="evenodd" d="M59.2952 21.7989H61.6755V21.2002H59.2952V21.7989ZM64.4567 21.7989H66.9372V21.2002H64.4567V21.7989ZM59.2952 22.4188H61.6755V21.7989H59.2952V22.4188ZM64.4567 22.4188H66.9372V21.7989H64.4567V22.4188ZM59.2952 23.0183H61.6755V22.4188H59.2952V23.0183ZM64.4567 23.0183H66.9372V22.4188H64.4567V23.0183Z" fill="#CCCCCC"/>
<path fill-rule="evenodd" clip-rule="evenodd" d="M59.3537 23.6176H61.9362C61.7247 23.3158 61.6755 23.0181 61.6755 23.0181H59.2951C59.2951 23.0181 59.2916 23.2597 59.3537 23.6176ZM64.3507 23.6176H66.8956C66.9243 23.4186 66.9344 23.2553 66.9371 23.1502V23.0181H64.4566C64.4566 23.0181 64.4853 23.3158 64.3507 23.6176ZM59.5038 24.2164H62.9275C62.4251 24.1423 62.1197 23.8788 61.9362 23.6176H59.3537C59.3847 23.794 59.4317 23.9986 59.5038 24.2164ZM63.5041 24.2164H66.7625C66.8285 23.9986 66.8692 23.794 66.8952 23.6176H64.3503C64.2339 23.8788 63.9937 24.1423 63.5041 24.2164Z" fill="#CCCCCC"/>
<path fill-rule="evenodd" clip-rule="evenodd" d="M59.7576 24.8163H66.527C66.6287 24.6133 66.7051 24.4099 66.7625 24.2168H63.5041C63.3129 24.2454 63.1187 24.2454 62.9275 24.2168H59.5038C59.5675 24.4095 59.6497 24.6133 59.7576 24.8163Z" fill="#CCCCCC"/>
<path fill-rule="evenodd" clip-rule="evenodd" d="M60.1639 25.4155H66.1398C66.2904 25.2312 66.4203 25.03 66.527 24.8159H59.7576C59.8711 25.0305 60.0073 25.2316 60.1639 25.4155ZM60.8487 26.0142H65.4744C65.7242 25.85 65.9485 25.6482 66.1398 25.4155H60.1639C60.3624 25.6483 60.5931 25.85 60.8487 26.0142Z" fill="#CCCCCC"/>
<path fill-rule="evenodd" clip-rule="evenodd" d="M65.4743 26.0142H60.8486C61.4035 26.3717 62.155 26.6137 63.1758 26.6137C64.1916 26.6137 64.9335 26.3721 65.4743 26.0142Z" fill="#CCCCCC"/>
<path fill-rule="evenodd" clip-rule="evenodd" d="M60.8366 4.38088H65.413C64.859 4.02259 64.1043 3.78174 63.0761 3.78174C62.0984 3.78134 61.374 4.02259 60.8366 4.38088ZM60.1719 4.98003H66.0944C65.8974 4.74678 65.6678 4.54486 65.413 4.38088H60.8366C60.5877 4.54626 60.3638 4.74811 60.1719 4.98003Z" fill="#CCCCCC"/>
<path fill-rule="evenodd" clip-rule="evenodd" d="M59.7743 5.57913H66.4929C66.3819 5.36499 66.2483 5.16406 66.0944 4.97998H60.172C60.019 5.1646 59.8857 5.36545 59.7743 5.57913ZM59.5209 6.17827H66.7396C66.6746 5.97146 66.5919 5.77096 66.4925 5.57913H59.7739C59.6738 5.77142 59.5891 5.97181 59.5209 6.17827ZM59.3672 6.77782H61.8923C62.0782 6.49875 62.4204 6.24038 63.0556 6.24038C63.7012 6.24038 64.0492 6.49835 64.2362 6.77782H66.8832C66.8502 6.57469 66.8023 6.37441 66.74 6.17867H59.5213C59.4564 6.37448 59.405 6.57467 59.3672 6.77782Z" fill="#CCCCCC"/>
<path fill-rule="evenodd" clip-rule="evenodd" d="M59.2967 7.37639H61.681C61.7038 7.16223 61.7763 6.95679 61.8924 6.77725H59.3673C59.3165 7.04995 59.3014 7.26532 59.2967 7.37639ZM64.4509 7.37639H66.9372V7.32902C66.9315 7.14392 66.9135 6.95944 66.8833 6.77686H64.2363C64.3915 7.00736 64.4369 7.25219 64.4509 7.37639ZM59.2952 7.99624H61.6755V7.4588C61.6755 7.4588 61.6755 7.42775 61.681 7.37639H59.2967C59.2944 7.42934 59.2952 7.4588 59.2952 7.4588V7.99624ZM64.4567 7.99624H66.9372V7.37639H64.4509C64.4571 7.42775 64.4571 7.4588 64.4571 7.4588V7.99624H64.4567Z" fill="#CCCCCC"/>
<path fill-rule="evenodd" clip-rule="evenodd" d="M59.2952 8.59613H61.6755V7.99658H59.2952V8.59613ZM64.4567 8.59613H66.9372V7.99658H64.4567V8.59613ZM59.2952 9.19527H61.6755V8.59613H59.2952V9.19527ZM64.4567 9.19527H66.9372V8.59613H64.4567V9.19527Z" fill="#CCCCCC"/>
<path fill-rule="evenodd" clip-rule="evenodd" d="M59.2952 9.79397H61.6755V9.19482H59.2952V9.79397ZM64.4567 9.79397H66.9372V9.19482H64.4567V9.79397ZM59.2952 10.3935H61.6755V9.79437H59.2952V10.3935ZM64.4567 10.3935H66.9372V9.79437H64.4567V10.3935Z" fill="#CCCCCC"/>
<path fill-rule="evenodd" clip-rule="evenodd" d="M59.2952 10.9927H61.6755V10.3936H59.2952V10.9927ZM64.4567 10.9927H66.9372V10.3936H64.4567V10.9927ZM59.2952 11.5918H61.6755V10.9927H59.2952V11.5918ZM64.4567 11.5918H66.9372V10.9927H64.4567V11.5918ZM59.2952 12.191H61.6755V11.5918H59.2952V12.191ZM64.4567 12.191H66.9372V11.5918H64.4567V12.191Z" fill="#CCCCCC"/>
<path fill-rule="evenodd" clip-rule="evenodd" d="M59.2952 12.79H61.6755V12.1909H59.2952V12.79ZM64.4567 12.79H66.9372V12.1909H64.4567V12.79Z" fill="#CCCCCC"/>
<path fill-rule="evenodd" clip-rule="evenodd" d="M59.2952 13.3896H61.6755V12.79H59.2952V13.3896ZM64.4567 13.3896H66.9372V12.79H64.4567V13.3896Z" fill="#CCCCCC"/>
<path fill-rule="evenodd" clip-rule="evenodd" d="M59.2952 13.9888H61.6755V13.3896H59.2952V13.9888ZM64.4567 13.9888H66.9372V13.3896H64.4567V13.9888ZM59.2952 14.5883H61.6755V13.9892H59.2952V14.5883ZM64.4567 14.5883H66.9372V13.9892H64.4567V14.5883ZM59.2952 15.2082H61.6755V14.5883H59.2952V15.2082ZM64.4567 15.2082H66.9372V14.5883H64.4567V15.2082Z" fill="#CCCCCC"/>
<path fill-rule="evenodd" clip-rule="evenodd" d="M59.2952 15.8071H61.6755V15.208H59.2952V15.8071ZM64.4567 15.8071H66.9372V15.208H64.4567V15.8071ZM59.2952 16.4063H61.6755V15.8071H59.2952V16.4063ZM64.4567 16.4063H66.9372V15.8071H64.4567V16.4063Z" fill="#CCCCCC"/>
<path fill-rule="evenodd" clip-rule="evenodd" d="M59.2952 17.0053H61.6755V16.4058H59.2952V17.0053ZM64.4567 17.0053H66.9372V16.4058H64.4567V17.0053ZM66.9372 17.4392V17.0053H64.4567V17.4392H66.9372ZM61.6755 17.0053H59.2952V17.4392H61.6755V17.0053Z" fill="#CCCCCC"/>
<path fill-rule="evenodd" clip-rule="evenodd" d="M19.382 4.54592H23.9942C23.4533 4.18882 22.7095 3.94678 21.6856 3.94678C20.6663 3.94678 19.9237 4.18882 19.382 4.54592ZM18.7155 5.14507H24.6569C24.4669 4.91182 24.2433 4.70976 23.9938 4.54592H19.382C19.1317 4.71006 18.907 4.91206 18.7155 5.14507Z" fill="#CCCCCC"/>
<path fill-rule="evenodd" clip-rule="evenodd" d="M18.3391 5.72395H25.029C24.9262 5.5177 24.8015 5.32372 24.6573 5.14551H18.7155C18.5698 5.32367 18.4436 5.51764 18.3391 5.72395Z" fill="#CCCCCC"/>
<path fill-rule="evenodd" clip-rule="evenodd" d="M18.099 6.32229H25.2638C25.2033 6.11572 25.1247 5.91519 25.029 5.72314H18.3391C18.242 5.9152 18.1617 6.1157 18.099 6.32229ZM17.9647 6.92183H20.5973C20.7785 6.67063 21.1122 6.42579 21.7256 6.42579C22.3584 6.42579 22.6933 6.67063 22.8694 6.92183H25.3922C25.3647 6.71901 25.3219 6.51869 25.2641 6.32269H18.099C18.0318 6.54284 17.9903 6.74786 17.9647 6.92183Z" fill="#CCCCCC"/>
<path fill-rule="evenodd" clip-rule="evenodd" d="M17.9244 7.50081H20.385V7.4594C20.385 7.4594 20.4064 7.1871 20.5973 6.92236H17.9647C17.917 7.24523 17.9244 7.4594 17.9244 7.4594V7.50081ZM23.0657 7.50081H25.4263V7.33042C25.4223 7.19384 25.4107 7.05761 25.3918 6.92236H22.869C23.0552 7.1871 23.0657 7.4594 23.0657 7.4594V7.50081ZM17.9244 8.09995H20.385V7.50081H17.9244V8.09995ZM23.0657 8.09995H25.4263V7.50081H23.0657V8.09995Z" fill="#CCCCCC"/>
<path fill-rule="evenodd" clip-rule="evenodd" d="M17.9244 8.69973H20.3851V8.10059H17.9244V8.69973ZM23.0657 8.69973H25.4263V8.10059H23.0657V8.69973ZM17.9244 9.27818H20.3851V8.69973H17.9244V9.27818ZM23.0657 9.27818H25.4263V8.69973H23.0657V9.27818Z" fill="#CCCCCC"/>
<path fill-rule="evenodd" clip-rule="evenodd" d="M17.9244 9.87698H20.3851V9.27783H17.9244V9.87698ZM23.0657 9.87698H25.4263V9.27783H23.0657V9.87698ZM17.9244 10.4554H20.3851V9.87698H17.9244V10.4554ZM23.0657 10.4554H25.4263V9.87698H23.0657V10.4554Z" fill="#CCCCCC"/>
<path fill-rule="evenodd" clip-rule="evenodd" d="M17.9244 11.0551H20.3851V10.4556H17.9244V11.0551ZM23.0657 11.0551H25.4263V10.4556H23.0657V11.0551ZM17.9244 11.6543H20.3851V11.0551H17.9244V11.6543ZM23.0657 11.6543H25.4263V11.0551H23.0657V11.6543Z" fill="#CCCCCC"/>
<path fill-rule="evenodd" clip-rule="evenodd" d="M17.9244 12.2322H20.3851V11.6538H17.9244V12.2322ZM23.0657 12.2322H25.4263V11.6538H23.0657V12.2322Z" fill="#CCCCCC"/>
<path fill-rule="evenodd" clip-rule="evenodd" d="M17.9244 12.832H20.3851V12.2324H17.9244V12.832ZM23.0657 12.832H25.4263V12.2324H23.0657V12.832Z" fill="#CCCCCC"/>
<path fill-rule="evenodd" clip-rule="evenodd" d="M17.9244 13.4307H20.3851V12.8315H17.9244V13.4307ZM23.0657 13.4307H25.4263V12.8315H23.0657V13.4307Z" fill="#CCCCCC"/>
<path fill-rule="evenodd" clip-rule="evenodd" d="M17.9244 14.0091H20.3851V13.4307H17.9244V14.0091ZM23.0657 14.0091H25.4263V13.4307H23.0657V14.0091ZM17.9244 14.6083H20.3851V14.0091H17.9244V14.6083ZM23.0657 14.6083H25.4263V14.0091H23.0657V14.6083ZM17.9244 15.2078H20.3851V14.6086H17.9244V15.2078ZM23.0657 15.2078H25.4263V14.6086H23.0657V15.2078Z" fill="#CCCCCC"/>
<path fill-rule="evenodd" clip-rule="evenodd" d="M17.9244 15.7864H20.3851V15.208H17.9244V15.7864ZM23.0657 15.7864H25.4263V15.208H23.0657V15.7864ZM17.9244 16.3856H20.3851V15.7864H17.9244V16.3856ZM23.0657 16.3856H25.4263V15.7864H23.0657V16.3856Z" fill="#CCCCCC"/>
<path fill-rule="evenodd" clip-rule="evenodd" d="M17.9244 16.9849H20.3851V16.3857H17.9244V16.9849ZM23.0657 16.9849H25.4263V16.3857H23.0657V16.9849Z" fill="#CCCCCC"/>
<path fill-rule="evenodd" clip-rule="evenodd" d="M17.9244 17.5628H20.3851V16.9844H17.9244V17.5628ZM23.0657 17.5628H25.4263V16.9844H23.0657V17.5628ZM17.9244 18.1624H20.3851V17.5628H17.9244V18.1624ZM23.0657 18.1624H25.4263V17.5628H23.0657V18.1624Z" fill="#CCCCCC"/>
<path fill-rule="evenodd" clip-rule="evenodd" d="M17.9244 18.741H20.3851V18.1626H17.9244V18.741ZM23.0658 18.741H25.4264V18.1626H23.0658V18.741ZM17.9244 19.3406H20.3851V18.741H17.9244V19.3406ZM23.0658 19.3406H25.4264V18.741H23.0658V19.3406ZM14.8305 19.9393H25.4264V19.3406H23.0658V19.4851H20.3851V19.3406H17.9244V19.4851H14.5434L14.8305 19.9393Z" fill="#CCCCCC"/>
<path fill-rule="evenodd" clip-rule="evenodd" d="M15.1964 20.5187H25.4264V19.9395H14.8305L15.1964 20.5187ZM15.5747 21.1174H25.4264V20.5187H15.1964L15.5747 21.1174Z" fill="#CCCCCC"/>
<path fill-rule="evenodd" clip-rule="evenodd" d="M15.9533 21.7168H25.4263V21.1177H15.5746L15.9533 21.7168ZM18.0245 22.2956H20.3451V21.9648H23.1259V22.2956H25.4263V21.7168H15.9533L16.0841 21.9238H18.0245V22.2956Z" fill="#CCCCCC"/>
<path fill-rule="evenodd" clip-rule="evenodd" d="M18.0245 22.895H20.3451V22.2954H18.0245V22.895ZM23.1259 22.895H25.4263V22.2954H23.1259V22.895Z" fill="#CCCCCC"/>
<path fill-rule="evenodd" clip-rule="evenodd" d="M18.0245 23.4933H20.3451V22.8945H18.0245V23.4933ZM23.1259 23.4933H25.4263V22.8945H23.1259V23.4933ZM18.0245 24.0717H20.3451V23.4933H18.0245V24.0717ZM23.1259 24.0717H25.4263V23.4933H23.1259V24.0717Z" fill="#CCCCCC"/>
<path fill-rule="evenodd" clip-rule="evenodd" d="M18.0245 24.6713H20.3451V24.0718H18.0245V24.6713ZM23.1259 24.6713H25.4263V24.0718H23.1259V24.6713ZM18.0245 25.2709H20.3451V24.6713H18.0245V25.2709ZM23.1259 25.2709H25.4263V24.6713H23.1259V25.2709ZM18.0245 25.8493H20.3451V25.2709H18.0245V25.8493ZM23.1259 25.8493H25.4263V25.2709H23.1259V25.8493Z" fill="#CCCCCC"/>
<path fill-rule="evenodd" clip-rule="evenodd" d="M18.0245 26.4479H20.3451V25.8491H18.0245V26.4479ZM23.1259 26.4479H25.4263V25.8491H23.1259V26.4479Z" fill="#CCCCCC"/>
</svg>
