<svg width="82" height="33" viewBox="0 0 82 33" fill="none" xmlns="http://www.w3.org/2000/svg">
<path fill-rule="evenodd" clip-rule="evenodd" d="M8.00036 8.9302C8.61529 8.38932 9.40674 8.11863 10.1099 8.11863C11.429 8.11863 12.7476 8.75007 14.0662 9.83233L14.6816 10.3737L16.4396 7.84795L15.9998 7.39664C14.3296 5.95363 12.5716 5.23164 10.5493 5.23164C9.05467 5.23164 7.64828 5.77301 6.2419 6.67513C4.83552 7.66732 3.95629 8.92971 3.69247 10.4633C3.34088 12.0869 3.69247 13.5299 4.83552 14.6122C5.53871 15.3342 6.68176 15.9656 8.35196 16.6866C9.58278 17.228 10.3738 17.6788 10.7253 18.04C11.1652 18.5814 11.3408 19.3019 11.1652 20.2045C10.9892 21.1062 10.5498 21.8282 9.75834 22.279C9.05515 22.8204 8.2637 23.001 7.47273 23.001C5.62649 23.001 4.04455 22.1889 2.63721 20.3847L2.19783 19.7542L0 22.1889L0.439854 22.6397C1.14305 23.5424 2.10957 24.2644 3.3404 24.8948C4.65948 25.5263 5.88983 25.888 7.12065 25.888C8.70307 25.888 10.1095 25.4362 11.4281 24.444C12.9222 23.4518 13.8897 22.0984 14.1535 20.3847C14.5929 18.5814 14.1535 17.1374 13.0105 15.9656C12.3951 15.3342 11.1642 14.6122 9.40578 13.8907H9.318C7.29621 12.9885 6.41698 11.9963 6.59254 10.9141C6.76954 10.1025 7.20939 9.38102 8.00036 8.9302ZM26.198 0H23.2092L21.9783 5.68245H17.9347L17.3193 8.47889H21.3634L19.1656 19.2129C18.6379 21.6476 18.814 23.4518 19.781 24.5341C20.3964 25.4357 21.5394 25.8875 23.0341 25.8875C25.7591 25.8875 28.1329 24.3534 30.2425 21.2868L30.8579 20.3842L27.8691 19.6632L27.6053 20.114C26.2862 22.0078 24.8803 23.0005 23.3857 23.0005C22.7703 23.0005 22.3304 22.9099 22.0666 22.5497C21.8028 22.1884 21.715 21.4664 21.9783 20.4743L24.44 8.47791H30.9457L31.5611 5.68147H24.9671L26.198 0ZM46.5934 7.21651C45.5386 5.86307 44.1313 5.23164 42.286 5.23164C39.6483 5.23164 37.3627 6.40395 35.5164 8.56945C33.934 10.4638 32.8792 12.8089 32.3516 15.5148C31.4724 19.1228 31.9117 21.8287 33.4064 23.8126C34.549 25.166 36.1319 25.888 38.2414 25.888C40.0877 25.888 42.4606 25.3456 45.186 24.1743L45.8015 23.9031L45.0978 20.837L44.3073 21.2878C42.1977 22.4606 40.2632 23.0015 38.593 23.0015C37.3622 23.0015 36.4834 22.6402 35.9558 22.0083C35.0766 21.0161 34.8128 19.2129 35.1644 16.5965H47.3839L47.5599 15.9656C48.3509 11.9968 47.9993 9.02026 46.5934 7.21651ZM41.8452 8.11814C42.8131 8.11814 43.6036 8.47889 44.219 9.29095C45.0105 10.3737 45.2738 11.8167 44.9227 13.7105H35.7798C36.2196 12.177 37.0106 10.9141 38.0659 9.83183C39.2967 8.74958 40.527 8.11814 41.8452 8.11814ZM59.2518 5.23164C57.4943 5.23164 55.9109 5.86307 54.5928 7.12595V5.14206L51.6035 5.59288V6.31487C51.7795 8.11863 51.6035 10.2836 51.0759 12.6288L46.8562 32.8333H49.9338L51.603 24.8953C52.6974 25.5491 53.9418 25.8919 55.2082 25.8885C57.054 25.8885 58.9002 25.0764 60.5709 23.6334C62.7687 21.7386 64.1751 19.2138 64.8783 15.876C65.6688 12.1779 65.3177 9.382 63.7352 7.39713C62.5927 5.95363 61.0985 5.23164 59.2518 5.23164ZM54.329 11.3654C55.8241 9.20089 57.3182 8.11814 58.9007 8.11814C59.8677 8.11814 60.6591 8.56945 61.2736 9.29095C62.3284 10.5538 62.4166 12.6283 61.889 15.4242C61.2736 18.5814 60.0432 20.7459 58.1087 22.0083C57.1417 22.6397 56.0869 23.0015 55.0322 23.0015C54.0652 23.0015 53.0986 22.5507 52.2189 21.648L54.329 11.3654ZM74.5488 13.8912C72.4393 12.989 71.4713 11.9968 71.7356 10.9146C71.9116 10.103 72.351 9.38151 73.0537 8.9302C73.7574 8.38932 74.4611 8.11863 75.2515 8.11863C76.5706 8.11863 77.8888 8.75007 79.2078 9.83233L79.8232 10.3737L81.5817 7.84795L81.1423 7.39664C79.4721 5.95363 77.6254 5.23164 75.6919 5.23164C74.1968 5.23164 72.7904 5.77301 71.3835 6.67513C69.9771 7.66732 69.0984 8.92971 68.8346 10.4633C68.4835 12.0869 68.8346 13.5299 70.0654 14.6122C70.6808 15.2436 71.8239 15.9656 73.4941 16.6866L75.867 18.04C76.3063 18.5814 76.4824 19.3019 76.3063 20.2045C76.1313 21.1062 75.6036 21.8282 74.9 22.279C74.1963 22.8204 73.4058 23.001 72.6139 23.001C70.7681 23.001 69.1862 22.1889 67.8671 20.3847L67.3394 19.7542L65.2299 22.1889L65.581 22.6397C66.2847 23.5424 67.2512 24.2644 68.4825 24.8948C69.7133 25.5263 71.0314 25.888 72.2627 25.888C73.8452 25.888 75.2511 25.4362 76.5702 24.444C78.0643 23.4518 79.0313 22.0984 79.2956 20.3847C79.735 18.5814 79.2956 17.1374 78.2408 15.9656C77.5372 15.3346 76.3063 14.6127 74.5488 13.8912Z" fill="#00B307"/>
</svg>
