<svg width="32" height="32" viewBox="0 0 32 32" fill="none" xmlns="http://www.w3.org/2000/svg">
<g clip-path="url(#clip0_460_43081)">
<path d="M28.0671 24.2499C28.326 24.2499 28.5359 24.0401 28.5359 23.7812V12.5312C28.5359 11.9717 28.3178 11.3994 27.9219 10.9197L24.4454 6.70756C24.2633 6.48688 24.0539 6.30088 23.8265 6.15275C23.8405 6.0095 23.8484 5.86481 23.8484 5.71875V0.46875C23.8484 0.209875 23.6385 0 23.3797 0C23.1208 0 22.9109 0.209875 22.9109 0.46875C22.9109 0.46875 22.91 5.76344 22.9096 5.78581C22.7762 5.76219 22.6409 5.75 22.5047 5.75H16.4422C16.0154 5.75 15.597 5.86975 15.2224 6.08981C15.2062 6.09563 15.1902 6.10213 15.1744 6.10981L10.605 8.33556C10.0987 8.5895 9.69392 9.01544 9.46498 9.53488C9.46248 9.54056 9.46011 9.54625 9.45786 9.552L7.56861 14.344C7.47367 14.5849 7.59192 14.8571 7.83279 14.9521C7.88923 14.9743 7.94736 14.9848 8.00461 14.9848C8.19148 14.9848 8.36811 14.8723 8.44079 14.6879L10.3264 9.90513C10.4682 9.58831 10.7161 9.32875 11.0204 9.176L13.4347 8.00006L11.0249 10.9198C10.6641 11.3569 10.4734 11.9142 10.4734 12.5313V28.7188C10.4734 28.9073 10.49 29.0919 10.52 29.2718L5.68992 27.1315C4.59879 26.6481 4.10429 25.3639 4.58779 24.2689C4.58986 24.2641 4.59186 24.2593 4.59386 24.2546L7.64904 16.6618C7.74567 16.4216 7.62936 16.1486 7.38917 16.0519C7.14886 15.9553 6.87598 16.0717 6.77929 16.3118L3.72679 23.8975C3.04042 25.4631 3.74942 27.297 5.31011 27.9885L10.9741 30.4983C10.981 30.5013 10.9881 30.5036 10.9951 30.5063C11.57 31.4045 12.5639 31.9999 13.6922 31.9999H25.2547C27.0333 31.9999 28.5359 30.4973 28.5359 28.7187V25.9687C28.5359 25.7098 28.326 25.4999 28.0672 25.4999C27.8083 25.4999 27.5984 25.7098 27.5984 25.9687V28.7187C27.5984 29.9891 26.5251 31.0624 25.2547 31.0624H13.6922C12.4343 31.0624 11.4109 30.0111 11.4109 28.7187V12.5312C11.4109 12.1288 11.5243 11.7874 11.748 11.5164L15.2244 7.30431C15.548 6.91231 15.9919 6.68744 16.4422 6.68744H22.5047C22.593 6.68744 22.681 6.69638 22.7679 6.71325C22.4745 7.71394 21.7476 8.54894 20.766 8.96738C20.5094 8.53806 20.0401 8.24994 19.5046 8.24994C18.6947 8.24994 18.0359 8.90881 18.0359 9.71869C18.0359 10.5286 18.6947 11.1874 19.5046 11.1874C20.2535 11.1874 20.8729 10.6238 20.962 9.8985C22.2244 9.421 23.179 8.40925 23.6044 7.17431C23.6452 7.21538 23.6847 7.25856 23.7224 7.30431L27.1989 11.5165C27.4565 11.8286 27.5984 12.189 27.5984 12.5313V23.7813C27.5984 24.0401 27.8082 24.2499 28.0671 24.2499ZM19.5046 10.2499C19.2117 10.2499 18.9734 10.0116 18.9734 9.71869C18.9734 9.42575 19.2117 9.18744 19.5046 9.18744C19.7975 9.18744 20.0359 9.42575 20.0359 9.71869C20.0359 10.0116 19.7975 10.2499 19.5046 10.2499Z" fill="#00B307"/>
<path d="M15.4424 24.9375C15.5623 24.9375 15.6823 24.8917 15.7738 24.8002L23.7738 16.8002C23.9569 16.6171 23.9569 16.3203 23.7738 16.1373C23.5908 15.9542 23.294 15.9542 23.111 16.1373L15.111 24.1373C14.8121 24.4159 15.0414 24.9517 15.4424 24.9375Z" fill="#00B307"/>
<path d="M16.4424 20C17.5624 20 18.4736 19.0887 18.4736 17.9687C18.4736 16.8487 17.5624 15.9375 16.4424 15.9375H16.3799C15.2599 15.9375 14.3486 16.8487 14.3486 17.9687C14.3486 19.0887 15.2599 20 16.3799 20H16.4424ZM15.2861 17.9687C15.2861 17.3657 15.7768 16.875 16.3799 16.875H16.4424C17.0454 16.875 17.5361 17.3657 17.5361 17.9687C17.5361 18.5718 17.0454 19.0625 16.4424 19.0625H16.3799C15.7768 19.0625 15.2861 18.5718 15.2861 17.9687Z" fill="#00B307"/>
<path d="M22.5049 24.9375H22.5674C23.6874 24.9375 24.5986 24.0262 24.5986 22.9062C24.5986 21.7862 23.6874 20.875 22.5674 20.875H22.5049C21.3849 20.875 20.4736 21.7862 20.4736 22.9062C20.4736 24.0262 21.3849 24.9375 22.5049 24.9375ZM22.5049 21.8125H22.5674C23.1704 21.8125 23.6611 22.3032 23.6611 22.9062C23.6611 23.5093 23.1704 24 22.5674 24H22.5049C21.9018 24 21.4111 23.5093 21.4111 22.9062C21.4111 22.3032 21.9018 21.8125 22.5049 21.8125Z" fill="#00B307"/>
</g>
<defs>
<clipPath id="clip0_460_43081">
<rect width="32" height="32" fill="white"/>
</clipPath>
</defs>
</svg>
