<svg width="13" height="13" viewBox="0 0 13 13" fill="none" xmlns="http://www.w3.org/2000/svg">
<path d="M6.77563 10.4206L9.92813 12.4176C10.3311 12.6726 10.8311 12.2931 10.7116 11.8226L9.80113 8.24006C9.77541 8.14027 9.77838 8.03524 9.80969 7.93706C9.841 7.83888 9.89939 7.75153 9.97813 7.68506L12.8051 5.33256C13.1761 5.02356 12.9851 4.40706 12.5076 4.37606L8.81613 4.13606C8.71674 4.12901 8.6214 4.09387 8.5412 4.03474C8.461 3.97561 8.39925 3.89492 8.36313 3.80206L6.98613 0.335057C6.94864 0.236527 6.88208 0.15172 6.79528 0.0918818C6.70849 0.0320435 6.60555 0 6.50013 0C6.39471 0 6.29177 0.0320435 6.20498 0.0918818C6.11818 0.15172 6.05163 0.236527 6.01413 0.335057L4.63713 3.80206C4.60109 3.89501 4.53937 3.97581 4.45916 4.03503C4.37896 4.09425 4.28358 4.12946 4.18413 4.13656L0.492631 4.37656C0.0156305 4.40706 -0.176369 5.02356 0.195131 5.33256L3.02213 7.68556C3.10079 7.75199 3.15911 7.83926 3.19042 7.93734C3.22173 8.03542 3.22475 8.14034 3.19913 8.24006L2.35513 11.5626C2.21163 12.1271 2.81213 12.5826 3.29513 12.2761L6.22513 10.4206C6.30748 10.3682 6.40305 10.3404 6.50063 10.3404C6.59822 10.3404 6.69378 10.3682 6.77613 10.4206H6.77563Z" fill="#FF8A00"/>
</svg>
