<svg width="18" height="18" viewBox="0 0 18 18" fill="none" xmlns="http://www.w3.org/2000/svg">
<path d="M9.30996 13.4111L12.8565 15.6577C13.3099 15.9446 13.8724 15.5177 13.738 14.9884L12.7136 10.9581C12.6847 10.8458 12.6881 10.7276 12.7233 10.6172C12.7585 10.5067 12.8242 10.4085 12.9128 10.3337L16.0931 7.68711C16.5105 7.33949 16.2956 6.64593 15.7585 6.61105L11.6055 6.34105C11.4937 6.33312 11.3865 6.29359 11.2962 6.22707C11.206 6.16055 11.1365 6.06977 11.0959 5.9653L9.54677 2.06493C9.50459 1.95408 9.42971 1.85867 9.33207 1.79136C9.23443 1.72404 9.11863 1.68799 9.00002 1.68799C8.88142 1.68799 8.76562 1.72404 8.66798 1.79136C8.57033 1.85867 8.49546 1.95408 8.45327 2.06493L6.90415 5.9653C6.8636 6.06988 6.79416 6.16077 6.70394 6.2274C6.61371 6.29402 6.5064 6.33364 6.39452 6.34161L2.24159 6.61161C1.70496 6.64593 1.48896 7.33949 1.9069 7.68711L5.08727 10.3342C5.17576 10.409 5.24138 10.5072 5.2766 10.6175C5.31182 10.7278 5.31522 10.8459 5.2864 10.9581L4.3369 14.6959C4.17546 15.3309 4.85102 15.8434 5.3944 15.4986L8.69065 13.4111C8.78329 13.3522 8.8908 13.3209 9.00059 13.3209C9.11037 13.3209 9.21788 13.3522 9.31052 13.4111H9.30996Z" fill="#CCCCCC"/>
</svg>
